<svg xmlns="http://www.w3.org/2000/svg" viewBox="0 0 64 64" width="64" height="64">
  <defs>
    <linearGradient id="petalGrad" x1="0%" y1="0%" x2="100%" y2="100%">
      <stop offset="0%" stop-color="#F06AAE"/>
      <stop offset="100%" stop-color="#E91E8C"/>
    </linearGradient>
  </defs>

  <!-- Leaf -->
  <path d="M32 40 C 20 46, 14 58, 18 62 C 26 60, 34 52, 32 40 Z" fill="#4CAF50"/>
  <path d="M32 40 C 44 46, 50 58, 46 62 C 38 60, 30 52, 32 40 Z" fill="#66BB6A"/>

  <!-- Stem -->
  <rect x="30.5" y="34" width="3" height="16" rx="1.5" fill="#4CAF50"/>

  <!-- Petals -->
  <g transform="translate(32,26)">
    <ellipse cx="0" cy="-12" rx="8" ry="12" fill="url(#petalGrad)"/>
    <ellipse cx="0" cy="12" rx="8" ry="12" fill="url(#petalGrad)"/>
    <ellipse cx="-12" cy="0" rx="12" ry="8" fill="url(#petalGrad)"/>
    <ellipse cx="12" cy="0" rx="12" ry="8" fill="url(#petalGrad)"/>
    <ellipse cx="-8.5" cy="-8.5" rx="8" ry="10" fill="url(#petalGrad)" transform="rotate(-45 -8.5 -8.5)"/>
    <ellipse cx="8.5" cy="-8.5" rx="8" ry="10" fill="url(#petalGrad)" transform="rotate(45 8.5 -8.5)"/>
    <ellipse cx="-8.5" cy="8.5" rx="8" ry="10" fill="url(#petalGrad)" transform="rotate(45 -8.5 8.5)"/>
    <ellipse cx="8.5" cy="8.5" rx="8" ry="10" fill="url(#petalGrad)" transform="rotate(-45 8.5 8.5)"/>
    <circle cx="0" cy="0" r="8" fill="#FFC107"/>
  </g>
</svg>
